<!DOCTYPE svg PUBLIC "-//W3C//DTD SVG 1.1//EN" "http://www.w3.org/Graphics/SVG/1.1/DTD/svg11.dtd">
<!-- Uploaded to: SVG Repo, www.svgrepo.com, Transformed by: SVG Repo Mixer Tools -->
<svg fill="#ffffff" width="800px" height="800px" viewBox="0 0 32 32" version="1.1" xmlns="http://www.w3.org/2000/svg">
<g id="SVGRepo_bgCarrier" stroke-width="0"/>
<g id="SVGRepo_tracerCarrier" stroke-linecap="round" stroke-linejoin="round"/>
<g id="SVGRepo_iconCarrier"> <title>paper-plane-top</title> <path d="M30.65 16.353c0.063-0.1 0.1-0.222 0.1-0.353s-0.037-0.252-0.102-0.356l0.002 0.003c-0.018-0.031-0.036-0.057-0.055-0.082l0.001 0.002c-0.059-0.081-0.132-0.149-0.217-0.199l-0.003-0.002c-0.016-0.010-0.023-0.028-0.040-0.036l-28.001-14c-0.098-0.050-0.213-0.079-0.335-0.079-0.414 0-0.75 0.336-0.75 0.75 0 0.107 0.022 0.209 0.063 0.301l-0.002-0.005 5.873 13.704-5.873 13.705c-0.038 0.087-0.060 0.188-0.060 0.294 0 0.414 0.336 0.75 0.75 0.75h0c0.001 0 0.002 0 0.003 0 0.121 0 0.236-0.030 0.336-0.082l-0.004 0.002 28.001-13.999c0.017-0.008 0.024-0.027 0.040-0.036 0.088-0.053 0.161-0.12 0.219-0.199l0.001-0.002c0.018-0.023 0.036-0.050 0.052-0.077l0.002-0.003zM3.496 3.587l23.326 11.663h-18.327zM8.495 16.75h18.328l-23.326 11.664z"/> </g>
</svg>