<?xml version="1.0" standalone="no"?>
<!DOCTYPE svg PUBLIC "-//W3C//DTD SVG 20010904//EN"
 "http://www.w3.org/TR/2001/REC-SVG-20010904/DTD/svg10.dtd">
<svg version="1.0" xmlns="http://www.w3.org/2000/svg"
 width="800.000000pt" height="800.000000pt" viewBox="0 0 800.000000 800.000000"
 preserveAspectRatio="xMidYMid meet">
<metadata>
Created by potrace 1.14, written by Peter Selinger 2001-2017
</metadata>
<g transform="translate(0.000000,800.000000) scale(0.100000,-0.100000)"
fill="#000000" stroke="none">
<path d="M3720 7510 c-257 -16 -310 -20 -335 -30 -15 -6 -44 -10 -66 -10 -22
0 -59 -4 -82 -10 -23 -5 -89 -18 -147 -29 -58 -11 -136 -29 -175 -40 -38 -11
-90 -24 -115 -31 -25 -6 -72 -20 -105 -31 -33 -11 -76 -24 -95 -29 -19 -5 -53
-15 -75 -23 -157 -59 -260 -101 -322 -131 -39 -20 -77 -36 -83 -36 -7 0 -29
-9 -49 -19 -200 -107 -291 -157 -316 -175 -16 -12 -42 -28 -57 -35 -32 -16
-122 -80 -234 -166 -44 -33 -98 -72 -121 -87 -23 -15 -59 -44 -80 -65 -21 -21
-61 -56 -87 -77 -85 -69 -167 -148 -248 -241 -44 -49 -94 -106 -112 -125 -67
-73 -258 -337 -273 -377 -4 -10 -27 -51 -50 -92 -158 -266 -327 -682 -363
-892 -5 -30 -14 -70 -20 -89 -5 -19 -10 -51 -10 -71 0 -20 -9 -88 -20 -151
-28 -161 -24 -591 8 -773 11 -66 26 -154 32 -195 7 -41 21 -104 32 -140 11
-36 22 -76 24 -90 6 -35 46 -163 54 -175 5 -5 28 -59 53 -120 55 -133 194
-422 207 -430 5 -3 18 -25 28 -48 11 -24 32 -59 49 -78 28 -33 84 -111 164
-229 20 -30 56 -75 79 -100 23 -25 66 -75 95 -111 57 -70 240 -245 315 -301
39 -29 45 -40 48 -74 4 -49 -20 -194 -41 -249 -8 -22 -18 -64 -21 -93 -3 -29
-12 -65 -19 -80 -14 -28 -35 -105 -35 -132 0 -8 -10 -58 -22 -110 -26 -111
-31 -256 -11 -314 15 -45 72 -111 112 -132 50 -25 140 -18 237 20 92 35 386
179 412 201 8 7 74 43 145 81 321 167 353 178 433 149 26 -9 63 -20 82 -24 19
-4 49 -15 65 -23 17 -9 53 -20 80 -26 28 -6 93 -25 145 -41 52 -17 103 -31
115 -31 11 0 53 -9 93 -20 84 -23 122 -30 397 -66 183 -25 230 -27 550 -28
356 -1 443 5 735 50 269 41 730 168 910 251 30 14 89 39 130 55 122 49 239
107 424 213 27 15 105 65 173 111 68 46 126 84 130 84 5 0 84 60 93 71 3 3 52
44 110 89 138 110 423 397 530 533 346 442 560 900 659 1407 67 345 67 774 0
1120 -37 193 -127 496 -173 587 -14 29 -26 58 -26 64 0 14 -141 296 -178 357
-95 152 -200 303 -292 417 -91 112 -381 406 -470 476 -41 33 -102 82 -135 110
-80 67 -304 219 -382 257 -34 18 -64 36 -67 41 -6 10 -448 231 -461 231 -4 0
-21 6 -38 14 -59 27 -252 96 -267 96 -8 0 -42 11 -75 25 -33 13 -73 25 -88 25
-15 0 -40 6 -55 14 -38 19 -287 75 -422 96 -41 6 -102 15 -135 21 -33 5 -89
12 -125 14 -339 21 -421 25 -525 23 -66 0 -176 -4 -245 -8z m714 -235 c931
-98 1765 -482 2376 -1095 262 -262 455 -533 611 -854 141 -292 221 -554 266
-871 22 -152 22 -578 0 -730 -45 -317 -125 -579 -266 -870 -326 -673 -895
-1222 -1633 -1574 -997 -475 -2192 -529 -3245 -145 -84 31 -106 35 -154 30
-113 -11 -227 -63 -634 -285 -308 -169 -435 -219 -435 -173 0 50 37 229 85
416 72 281 88 373 83 471 -6 113 -23 140 -177 278 -928 836 -1263 2059 -866
3164 58 160 180 413 269 558 371 601 971 1097 1681 1390 412 170 909 281 1385
309 128 7 508 -4 654 -19z"/>
<path d="M5466 5176 c-117 -49 -203 -155 -225 -277 -28 -160 60 -328 207 -397
50 -24 70 -27 157 -27 87 0 107 3 155 26 72 34 140 101 176 174 26 54 29 70
29 160 0 90 -3 106 -29 159 -37 76 -102 140 -174 174 -84 39 -213 43 -296 8z"/>
<path d="M2265 5116 c-162 -39 -294 -171 -337 -335 -32 -122 -18 -195 42 -226
39 -20 69 -19 108 5 38 24 49 46 57 121 18 168 184 271 322 201 75 -39 133
-137 133 -224 0 -62 54 -118 112 -118 33 0 87 36 98 66 24 62 2 186 -52 286
-34 64 -127 157 -188 188 -50 25 -153 50 -205 49 -22 0 -63 -6 -90 -13z"/>
<path d="M2980 3992 c0 -98 5 -215 10 -261 44 -349 278 -645 617 -780 547
-219 1179 63 1352 604 38 118 51 231 51 443 l0 172 -1015 0 -1015 0 0 -178z"/>
<path d="M1283 3936 c-161 -53 -252 -184 -241 -351 12 -177 149 -306 328 -308
257 -3 421 265 300 492 -57 106 -155 169 -278 177 -42 2 -83 -1 -109 -10z"/>
<path d="M6587 3940 c-97 -25 -182 -95 -226 -189 -22 -47 -26 -70 -26 -141 0
-103 21 -155 90 -229 191 -204 530 -98 574 180 24 148 -55 292 -196 356 -61
28 -155 38 -216 23z"/>
</g>
</svg>
